<svg xmlns="http://www.w3.org/2000/svg" xmlns:xlink="http://www.w3.org/1999/xlink" width="240" zoomAndPan="magnify" viewBox="0 0 180 78.749999" height="105" preserveAspectRatio="xMidYMid meet" version="1.0"><defs><g/><clipPath id="e72fd75fb6"><path d="M 7 7 L 50 7 L 50 50 L 7 50 Z M 7 7 " clip-rule="nonzero"/></clipPath><clipPath id="f3da51f9e9"><path d="M 0.285156 14.34375 L 42.769531 -0.0546875 L 57.167969 42.429688 L 14.683594 56.828125 Z M 0.285156 14.34375 " clip-rule="nonzero"/></clipPath><clipPath id="459a3bcdfc"><path d="M 0.285156 14.34375 L 42.769531 -0.0546875 L 57.167969 42.429688 L 14.683594 56.828125 Z M 0.285156 14.34375 " clip-rule="nonzero"/></clipPath><clipPath id="6fcbc40179"><path d="M 0.0859375 11 L 22 11 L 22 37 L 0.0859375 37 Z M 0.0859375 11 " clip-rule="nonzero"/></clipPath><clipPath id="c63c07ad4c"><path d="M 100 12 L 124.488281 12 L 124.488281 47 L 100 47 Z M 100 12 " clip-rule="nonzero"/></clipPath><clipPath id="9e6fdc1e37"><rect x="0" width="125" y="0" height="49"/></clipPath></defs><g clip-path="url(#e72fd75fb6)"><g clip-path="url(#f3da51f9e9)"><g clip-path="url(#459a3bcdfc)"><path fill="#ff66c4" d="M 25.800781 18.320312 C 26.0625 18.890625 26.375 19.433594 26.730469 19.949219 C 27.089844 20.464844 27.488281 20.949219 27.925781 21.398438 C 28.367188 21.847656 28.839844 22.257812 29.347656 22.625 C 29.855469 22.996094 30.390625 23.316406 30.957031 23.597656 C 31.519531 23.875 32.101562 24.101562 32.703125 24.28125 C 33.304688 24.460938 33.917969 24.589844 34.542969 24.664062 C 35.164062 24.738281 35.789062 24.761719 36.417969 24.730469 C 37.046875 24.699219 37.667969 24.617188 38.28125 24.480469 C 41.246094 23.824219 45.007812 22.777344 49.777344 21.160156 C 45.007812 22.777344 41.382812 24.230469 38.628906 25.515625 C 38.058594 25.777344 37.515625 26.089844 37 26.445312 C 36.484375 26.804688 36 27.203125 35.550781 27.640625 C 35.101562 28.082031 34.691406 28.554688 34.324219 29.0625 C 33.953125 29.570312 33.628906 30.105469 33.351562 30.667969 C 33.074219 31.234375 32.847656 31.816406 32.667969 32.417969 C 32.488281 33.019531 32.359375 33.632812 32.285156 34.257812 C 32.210938 34.878906 32.1875 35.503906 32.21875 36.132812 C 32.25 36.761719 32.332031 37.378906 32.46875 37.992188 C 33.125 40.960938 34.171875 44.722656 35.789062 49.492188 C 34.171875 44.722656 32.71875 41.097656 31.433594 38.34375 C 31.171875 37.773438 30.859375 37.230469 30.5 36.714844 C 30.144531 36.199219 29.746094 35.714844 29.308594 35.265625 C 28.867188 34.816406 28.394531 34.40625 27.886719 34.039062 C 27.378906 33.667969 26.84375 33.34375 26.277344 33.066406 C 25.714844 32.789062 25.132812 32.558594 24.53125 32.382812 C 23.929688 32.203125 23.316406 32.074219 22.691406 32 C 22.070312 31.921875 21.441406 31.902344 20.816406 31.933594 C 20.1875 31.960938 19.566406 32.046875 18.953125 32.183594 C 15.988281 32.839844 12.226562 33.886719 7.457031 35.503906 C 12.226562 33.886719 15.851562 32.433594 18.605469 31.148438 C 19.175781 30.882812 19.71875 30.574219 20.234375 30.214844 C 20.75 29.859375 21.234375 29.460938 21.683594 29.023438 C 22.132812 28.582031 22.542969 28.109375 22.910156 27.601562 C 23.28125 27.09375 23.601562 26.558594 23.882812 25.992188 C 24.160156 25.429688 24.386719 24.847656 24.566406 24.246094 C 24.746094 23.644531 24.875 23.03125 24.949219 22.40625 C 25.023438 21.785156 25.046875 21.15625 25.015625 20.53125 C 24.984375 19.902344 24.902344 19.28125 24.765625 18.667969 C 24.109375 15.703125 23.0625 11.941406 21.445312 7.171875 C 23.0625 11.941406 24.515625 15.5625 25.800781 18.320312 Z M 25.800781 18.320312 " fill-opacity="1" fill-rule="nonzero"/></g></g></g><g transform="matrix(1, 0, 0, 1, 38, 15)"><g clip-path="url(#9e6fdc1e37)"><g clip-path="url(#6fcbc40179)"><g fill="#5e17eb" fill-opacity="1"><g transform="translate(0.385203, 35.454403)"><g><path d="M 12.796875 0.65625 C 10.460938 0.65625 8.363281 0.179688 6.5 -0.765625 C 4.644531 -1.710938 3.1875 -3.09375 2.125 -4.90625 C 1.0625 -6.71875 0.53125 -8.878906 0.53125 -11.390625 C 0.53125 -13.441406 0.847656 -15.195312 1.484375 -16.65625 C 2.128906 -18.113281 2.957031 -19.316406 3.96875 -20.265625 C 4.976562 -21.210938 6.03125 -21.957031 7.125 -22.5 C 8.21875 -23.039062 9.238281 -23.421875 10.1875 -23.640625 C 11.132812 -23.859375 11.859375 -23.96875 12.359375 -23.96875 C 13.734375 -23.96875 14.9375 -23.785156 15.96875 -23.421875 C 17.007812 -23.054688 17.875 -22.609375 18.5625 -22.078125 C 19.25 -21.554688 19.789062 -21.039062 20.1875 -20.53125 C 20.582031 -20.019531 20.820312 -19.617188 20.90625 -19.328125 L 13.59375 -13.109375 L 13.375 -13.234375 C 13.195312 -14.691406 12.863281 -16.085938 12.375 -17.421875 C 11.894531 -18.753906 11.3125 -19.84375 10.625 -20.6875 C 9.9375 -21.53125 9.203125 -21.953125 8.421875 -21.953125 C 7.773438 -21.953125 7.222656 -21.679688 6.765625 -21.140625 C 6.316406 -20.609375 6.09375 -19.726562 6.09375 -18.5 C 6.09375 -17.269531 6.347656 -15.898438 6.859375 -14.390625 C 7.367188 -12.890625 8.097656 -11.453125 9.046875 -10.078125 C 9.992188 -8.703125 11.132812 -7.566406 12.46875 -6.671875 C 13.800781 -5.785156 15.285156 -5.34375 16.921875 -5.34375 C 17.535156 -5.34375 18.175781 -5.429688 18.84375 -5.609375 C 19.519531 -5.785156 20.296875 -6.109375 21.171875 -6.578125 L 21.390625 -6.3125 C 20.160156 -4.96875 18.984375 -3.769531 17.859375 -2.71875 C 16.734375 -1.664062 15.734375 -0.835938 14.859375 -0.234375 C 13.984375 0.359375 13.296875 0.65625 12.796875 0.65625 Z M 12.796875 0.65625 "/></g></g></g></g><g fill="#5e17eb" fill-opacity="1"><g transform="translate(20.415644, 35.454403)"><g><path d="M 10.515625 -1.96875 L 12.578125 -0.265625 L 12.578125 0 L 0.78125 0 L 0.78125 -0.265625 L 2.8125 -1.96875 L 2.8125 -29.671875 L 0.046875 -30.640625 L 0.046875 -30.90625 L 10.25 -34.015625 L 10.515625 -34.015625 Z M 10.515625 -1.96875 "/></g></g></g><g fill="#5e17eb" fill-opacity="1"><g transform="translate(32.907261, 35.454403)"><g><path d="M 20.78125 -5 L 24.015625 -6.65625 L 24.1875 -6.4375 C 23.3125 -5.1875 22.492188 -4.035156 21.734375 -2.984375 C 20.972656 -1.929688 20.210938 -1.082031 19.453125 -0.4375 C 18.691406 0.207031 17.863281 0.53125 16.96875 0.53125 C 16.289062 0.53125 15.671875 0.351562 15.109375 0 C 14.554688 -0.351562 14.140625 -0.972656 13.859375 -1.859375 C 13.585938 -2.753906 13.507812 -4.003906 13.625 -5.609375 L 13.40625 -5.609375 C 12.9375 -4.523438 12.363281 -3.515625 11.6875 -2.578125 C 11.019531 -1.648438 10.226562 -0.894531 9.3125 -0.3125 C 8.394531 0.269531 7.273438 0.5625 5.953125 0.5625 C 4.460938 0.5625 3.25 0.148438 2.3125 -0.671875 C 1.382812 -1.503906 0.921875 -2.65625 0.921875 -4.125 C 0.921875 -5.5 1.300781 -6.679688 2.0625 -7.671875 C 2.820312 -8.660156 3.785156 -9.519531 4.953125 -10.25 C 6.117188 -10.976562 7.316406 -11.625 8.546875 -12.1875 L 13.375 -14.28125 C 13.394531 -16.53125 13.082031 -18.296875 12.4375 -19.578125 C 11.800781 -20.867188 10.957031 -21.488281 9.90625 -21.4375 C 9 -21.34375 8.375 -20.769531 8.03125 -19.71875 C 7.695312 -18.664062 7.925781 -16.867188 8.71875 -14.328125 L 0.609375 -12.046875 L 0.484375 -12.265625 C 1.503906 -14.515625 2.628906 -16.363281 3.859375 -17.8125 C 5.085938 -19.257812 6.304688 -20.398438 7.515625 -21.234375 C 8.722656 -22.066406 9.847656 -22.679688 10.890625 -23.078125 C 11.929688 -23.472656 12.785156 -23.71875 13.453125 -23.8125 C 14.128906 -23.914062 14.539062 -23.96875 14.6875 -23.96875 C 16.4375 -23.96875 17.773438 -23.703125 18.703125 -23.171875 C 19.640625 -22.648438 20.296875 -21.90625 20.671875 -20.9375 C 21.054688 -19.976562 21.253906 -18.851562 21.265625 -17.5625 C 21.285156 -16.28125 21.253906 -14.894531 21.171875 -13.40625 L 20.78125 -5.65625 Z M 10.25 -4.734375 C 10.6875 -4.734375 11.191406 -4.914062 11.765625 -5.28125 C 12.335938 -5.644531 12.84375 -6.25 13.28125 -7.09375 L 13.375 -13.328125 C 11.5625 -12.066406 10.265625 -10.953125 9.484375 -9.984375 C 8.710938 -9.023438 8.328125 -8.078125 8.328125 -7.140625 C 8.328125 -6.234375 8.550781 -5.601562 9 -5.25 C 9.457031 -4.90625 9.875 -4.734375 10.25 -4.734375 Z M 10.25 -4.734375 "/></g></g></g><g fill="#5e17eb" fill-opacity="1"><g transform="translate(55.699024, 35.454403)"><g><path d="M 21.125 -21.515625 L 21.34375 -21.390625 C 21.195312 -21.035156 20.960938 -20.535156 20.640625 -19.890625 C 20.316406 -19.253906 19.925781 -18.582031 19.46875 -17.875 C 19.019531 -17.175781 18.519531 -16.585938 17.96875 -16.109375 C 17.414062 -15.628906 16.832031 -15.390625 16.21875 -15.390625 C 15.664062 -15.390625 15.164062 -15.59375 14.71875 -16 C 14.28125 -16.40625 13.859375 -16.8125 13.453125 -17.21875 C 13.046875 -17.632812 12.59375 -17.84375 12.09375 -17.84375 C 11.976562 -17.84375 11.8125 -17.742188 11.59375 -17.546875 C 11.375 -17.359375 11.191406 -17.101562 11.046875 -16.78125 L 11.046875 -1.921875 L 13.0625 -0.265625 L 13.0625 0 L 1.265625 0 L 1.265625 -0.265625 L 3.328125 -1.96875 L 3.328125 -18.359375 L 0.046875 -16.75 L -0.125 -16.96875 C 0.78125 -18.21875 1.609375 -19.359375 2.359375 -20.390625 C 3.117188 -21.429688 3.878906 -22.273438 4.640625 -22.921875 C 5.398438 -23.566406 6.21875 -23.890625 7.09375 -23.890625 C 7.800781 -23.890625 8.425781 -23.71875 8.96875 -23.375 C 9.507812 -23.039062 9.914062 -22.4375 10.1875 -21.5625 C 10.46875 -20.6875 10.550781 -19.429688 10.4375 -17.796875 L 10.78125 -17.796875 C 11.1875 -18.316406 11.628906 -18.925781 12.109375 -19.625 C 12.597656 -20.332031 13.082031 -21.015625 13.5625 -21.671875 C 14.039062 -22.328125 14.476562 -22.867188 14.875 -23.296875 C 15.269531 -23.722656 15.570312 -23.9375 15.78125 -23.9375 C 16.039062 -23.9375 16.335938 -23.785156 16.671875 -23.484375 C 17.015625 -23.191406 17.378906 -22.863281 17.765625 -22.5 C 18.160156 -22.132812 18.5625 -21.804688 18.96875 -21.515625 C 19.382812 -21.222656 19.78125 -21.078125 20.15625 -21.078125 C 20.539062 -21.078125 20.863281 -21.222656 21.125 -21.515625 Z M 21.125 -21.515625 "/></g></g></g><g fill="#5e17eb" fill-opacity="1"><g transform="translate(75.291165, 35.454403)"><g><path d="M 6.703125 -25.984375 C 5.535156 -25.984375 4.59375 -26.3125 3.875 -26.96875 C 3.164062 -27.632812 2.8125 -28.503906 2.8125 -29.578125 C 2.8125 -30.628906 3.164062 -31.476562 3.875 -32.125 C 4.59375 -32.769531 5.535156 -33.09375 6.703125 -33.09375 C 7.816406 -33.09375 8.71875 -32.769531 9.40625 -32.125 C 10.09375 -31.476562 10.4375 -30.628906 10.4375 -29.578125 C 10.4375 -28.503906 10.09375 -27.632812 9.40625 -26.96875 C 8.71875 -26.3125 7.816406 -25.984375 6.703125 -25.984375 Z M 2.890625 -1.96875 L 2.9375 -21.21875 L 0.921875 -23.046875 L 0.921875 -23.3125 L 10.6875 -23.3125 L 10.6875 -21.21875 L 10.609375 -1.96875 L 12.625 -0.265625 L 12.625 0 L 0.828125 0 L 0.828125 -0.265625 Z M 2.890625 -1.96875 "/></g></g></g><g fill="#5e17eb" fill-opacity="1"><g transform="translate(87.695125, 35.454403)"><g><path d="M 14.984375 -5.65625 L 15.171875 -5.4375 C 13.554688 -3.332031 12.15625 -1.789062 10.96875 -0.8125 C 9.789062 0.164062 8.804688 0.65625 8.015625 0.65625 C 6.265625 0.65625 4.953125 0.101562 4.078125 -1 C 3.203125 -2.113281 2.75 -3.867188 2.71875 -6.265625 L 2.578125 -21.5625 L 0.046875 -23.046875 L 0.046875 -23.3125 L 3.421875 -23.3125 L 9.859375 -30.71875 L 10.171875 -30.71875 L 10.171875 -23.3125 L 14.953125 -23.3125 L 14.953125 -21.4375 C 13.984375 -21.4375 13.125 -21.472656 12.375 -21.546875 C 11.632812 -21.617188 10.898438 -21.710938 10.171875 -21.828125 L 10.078125 -8.15625 C 10.078125 -7.007812 10.300781 -6.148438 10.75 -5.578125 C 11.207031 -5.015625 11.816406 -4.734375 12.578125 -4.734375 C 13.273438 -4.734375 14.078125 -5.039062 14.984375 -5.65625 Z M 14.984375 -5.65625 "/></g></g></g><g clip-path="url(#c63c07ad4c)"><g fill="#5e17eb" fill-opacity="1"><g transform="translate(102.071449, 35.454403)"><g><path d="M 11.96875 -23.046875 L 11.96875 -23.3125 L 22 -23.3125 L 22 -23.046875 L 6.84375 10.953125 L -1.140625 10.953125 L -1.140625 10.6875 L 10.5625 0.390625 L -0.265625 -23.046875 L -0.265625 -23.3125 L 10.734375 -23.3125 L 10.734375 -23.046875 L 8.453125 -21.4375 L 14.109375 -8.28125 L 14.421875 -8.28125 L 15.03125 -10 C 15.5625 -11.632812 15.757812 -13.3125 15.625 -15.03125 C 15.488281 -16.757812 15.109375 -18.335938 14.484375 -19.765625 C 13.859375 -21.191406 13.019531 -22.285156 11.96875 -23.046875 Z M 11.96875 -23.046875 "/></g></g></g></g></g></g></svg>